<svg width="50" height="50" viewBox="0 0 50 50" fill="none" xmlns="http://www.w3.org/2000/svg">
<rect width="50" height="50" rx="25" fill="#D9D9D9"/>
<path d="M24.9974 14C20.7894 14 17.4199 15.8893 14.967 18.1379C12.5297 20.3661 10.8997 23.0357 10.1289 24.8685C9.95703 25.2741 9.95703 25.7259 10.1289 26.1315C10.8997 27.9643 12.5297 30.6339 14.967 32.8621C17.4199 35.1107 20.7894 37 24.9974 37C29.2054 37 32.5749 35.1107 35.0278 32.8621C37.4651 30.6288 39.0951 27.9643 39.8711 26.1315C40.043 25.7259 40.043 25.2741 39.8711 24.8685C39.0951 23.0357 37.4651 20.3661 35.0278 18.1379C32.5749 15.8893 29.2054 14 24.9974 14ZM17.498 25.5C17.498 23.5393 18.2882 21.6589 19.6946 20.2725C21.101 18.886 23.0084 18.1071 24.9974 18.1071C26.9863 18.1071 28.8938 18.886 30.3002 20.2725C31.7066 21.6589 32.4967 23.5393 32.4967 25.5C32.4967 27.4607 31.7066 29.3411 30.3002 30.7275C28.8938 32.114 26.9863 32.8929 24.9974 32.8929C23.0084 32.8929 21.101 32.114 19.6946 30.7275C18.2882 29.3411 17.498 27.4607 17.498 25.5ZM24.9974 22.2143C24.9974 24.0266 23.5027 25.5 21.6644 25.5C21.2946 25.5 20.9405 25.4384 20.6072 25.3306C20.3207 25.2382 19.9874 25.4127 19.9978 25.7105C20.0135 26.0647 20.0655 26.419 20.1645 26.7732C20.878 29.4018 23.6225 30.9625 26.289 30.2592C28.9554 29.5558 30.5386 26.8502 29.8251 24.2217C29.247 22.0911 27.3357 20.6587 25.2109 20.5714C24.9089 20.5612 24.7318 20.8846 24.8255 21.1721C24.9349 21.5007 24.9974 21.8498 24.9974 22.2143Z" fill="#403856"/>
</svg>
